<?xml version="1.0" encoding="utf-8" standalone="no"?>
<!DOCTYPE svg PUBLIC "-//W3C//DTD SVG 1.1//EN"
  "http://www.w3.org/Graphics/SVG/1.1/DTD/svg11.dtd">
<svg xmlns:xlink="http://www.w3.org/1999/xlink" width="1080pt" height="252pt" viewBox="0 0 1080 252" xmlns="http://www.w3.org/2000/svg" version="1.1">
 <metadata>
  <rdf:RDF xmlns:dc="http://purl.org/dc/elements/1.1/" xmlns:cc="http://creativecommons.org/ns#" xmlns:rdf="http://www.w3.org/1999/02/22-rdf-syntax-ns#">
   <cc:Work>
    <dc:type rdf:resource="http://purl.org/dc/dcmitype/StillImage"/>
    <dc:date>2024-02-21T14:25:12.314628</dc:date>
    <dc:format>image/svg+xml</dc:format>
    <dc:creator>
     <cc:Agent>
      <dc:title>Matplotlib v3.7.1, https://matplotlib.org/</dc:title>
     </cc:Agent>
    </dc:creator>
   </cc:Work>
  </rdf:RDF>
 </metadata>
 <defs>
  <style type="text/css">*{stroke-linejoin: round; stroke-linecap: butt}</style>
 </defs>
 <g id="figure_1">
  <g id="patch_1">
   <path d="M 0 252 
L 1080 252 
L 1080 0 
L 0 0 
z
" style="fill: #ffffff"/>
  </g>
  <g id="axes_1">
   <g id="patch_2">
    <path d="M 135 224.28 
L 972 224.28 
L 972 30.24 
L 135 30.24 
z
" style="fill: #ffffff"/>
   </g>
   <g id="matplotlib.axis_1">
    <g id="xtick_1">
     <g id="line2d_1">
      <path d="M 173.045455 224.28 
L 173.045455 30.24 
" clip-path="url(#pc36408c3e2)" style="fill: none; stroke-dasharray: 9.6,2.4,1.5,2.4; stroke-dashoffset: 0; stroke: #808080; stroke-opacity: 0.25; stroke-width: 1.5"/>
     </g>
     <g id="line2d_2">
      <defs>
       <path id="mc1e3d3409b" d="M 0 0 
L 0 3.5 
" style="stroke: #000000; stroke-width: 0.8"/>
      </defs>
      <g>
       <use xlink:href="#mc1e3d3409b" x="173.045455" y="224.28" style="stroke: #000000; stroke-width: 0.8"/>
      </g>
     </g>
     <g id="text_1">
      <!-- 0 -->
      <g transform="translate(169.864205 238.878438) scale(0.1 -0.1)">
       <defs>
        <path id="DejaVuSans-30" d="M 2034 4250 
Q 1547 4250 1301 3770 
Q 1056 3291 1056 2328 
Q 1056 1369 1301 889 
Q 1547 409 2034 409 
Q 2525 409 2770 889 
Q 3016 1369 3016 2328 
Q 3016 3291 2770 3770 
Q 2525 4250 2034 4250 
z
M 2034 4750 
Q 2819 4750 3233 4129 
Q 3647 3509 3647 2328 
Q 3647 1150 3233 529 
Q 2819 -91 2034 -91 
Q 1250 -91 836 529 
Q 422 1150 422 2328 
Q 422 3509 836 4129 
Q 1250 4750 2034 4750 
z
" transform="scale(0.015625)"/>
       </defs>
       <use xlink:href="#DejaVuSans-30"/>
      </g>
     </g>
    </g>
    <g id="xtick_2">
     <g id="line2d_3">
      <path d="M 284.80251 224.28 
L 284.80251 30.24 
" clip-path="url(#pc36408c3e2)" style="fill: none; stroke-dasharray: 9.6,2.4,1.5,2.4; stroke-dashoffset: 0; stroke: #808080; stroke-opacity: 0.25; stroke-width: 1.5"/>
     </g>
     <g id="line2d_4">
      <g>
       <use xlink:href="#mc1e3d3409b" x="284.80251" y="224.28" style="stroke: #000000; stroke-width: 0.8"/>
      </g>
     </g>
     <g id="text_2">
      <!-- 5000 -->
      <g transform="translate(272.07751 238.878438) scale(0.1 -0.1)">
       <defs>
        <path id="DejaVuSans-35" d="M 691 4666 
L 3169 4666 
L 3169 4134 
L 1269 4134 
L 1269 2991 
Q 1406 3038 1543 3061 
Q 1681 3084 1819 3084 
Q 2600 3084 3056 2656 
Q 3513 2228 3513 1497 
Q 3513 744 3044 326 
Q 2575 -91 1722 -91 
Q 1428 -91 1123 -41 
Q 819 9 494 109 
L 494 744 
Q 775 591 1075 516 
Q 1375 441 1709 441 
Q 2250 441 2565 725 
Q 2881 1009 2881 1497 
Q 2881 1984 2565 2268 
Q 2250 2553 1709 2553 
Q 1456 2553 1204 2497 
Q 953 2441 691 2322 
L 691 4666 
z
" transform="scale(0.015625)"/>
       </defs>
       <use xlink:href="#DejaVuSans-35"/>
       <use xlink:href="#DejaVuSans-30" x="63.623047"/>
       <use xlink:href="#DejaVuSans-30" x="127.246094"/>
       <use xlink:href="#DejaVuSans-30" x="190.869141"/>
      </g>
     </g>
    </g>
    <g id="xtick_3">
     <g id="line2d_5">
      <path d="M 396.559566 224.28 
L 396.559566 30.24 
" clip-path="url(#pc36408c3e2)" style="fill: none; stroke-dasharray: 9.6,2.4,1.5,2.4; stroke-dashoffset: 0; stroke: #808080; stroke-opacity: 0.25; stroke-width: 1.5"/>
     </g>
     <g id="line2d_6">
      <g>
       <use xlink:href="#mc1e3d3409b" x="396.559566" y="224.28" style="stroke: #000000; stroke-width: 0.8"/>
      </g>
     </g>
     <g id="text_3">
      <!-- 10000 -->
      <g transform="translate(380.653316 238.878438) scale(0.1 -0.1)">
       <defs>
        <path id="DejaVuSans-31" d="M 794 531 
L 1825 531 
L 1825 4091 
L 703 3866 
L 703 4441 
L 1819 4666 
L 2450 4666 
L 2450 531 
L 3481 531 
L 3481 0 
L 794 0 
L 794 531 
z
" transform="scale(0.015625)"/>
       </defs>
       <use xlink:href="#DejaVuSans-31"/>
       <use xlink:href="#DejaVuSans-30" x="63.623047"/>
       <use xlink:href="#DejaVuSans-30" x="127.246094"/>
       <use xlink:href="#DejaVuSans-30" x="190.869141"/>
       <use xlink:href="#DejaVuSans-30" x="254.492188"/>
      </g>
     </g>
    </g>
    <g id="xtick_4">
     <g id="line2d_7">
      <path d="M 508.316622 224.28 
L 508.316622 30.24 
" clip-path="url(#pc36408c3e2)" style="fill: none; stroke-dasharray: 9.6,2.4,1.5,2.4; stroke-dashoffset: 0; stroke: #808080; stroke-opacity: 0.25; stroke-width: 1.5"/>
     </g>
     <g id="line2d_8">
      <g>
       <use xlink:href="#mc1e3d3409b" x="508.316622" y="224.28" style="stroke: #000000; stroke-width: 0.8"/>
      </g>
     </g>
     <g id="text_4">
      <!-- 15000 -->
      <g transform="translate(492.410372 238.878438) scale(0.1 -0.1)">
       <use xlink:href="#DejaVuSans-31"/>
       <use xlink:href="#DejaVuSans-35" x="63.623047"/>
       <use xlink:href="#DejaVuSans-30" x="127.246094"/>
       <use xlink:href="#DejaVuSans-30" x="190.869141"/>
       <use xlink:href="#DejaVuSans-30" x="254.492188"/>
      </g>
     </g>
    </g>
    <g id="xtick_5">
     <g id="line2d_9">
      <path d="M 620.073678 224.28 
L 620.073678 30.24 
" clip-path="url(#pc36408c3e2)" style="fill: none; stroke-dasharray: 9.6,2.4,1.5,2.4; stroke-dashoffset: 0; stroke: #808080; stroke-opacity: 0.25; stroke-width: 1.5"/>
     </g>
     <g id="line2d_10">
      <g>
       <use xlink:href="#mc1e3d3409b" x="620.073678" y="224.28" style="stroke: #000000; stroke-width: 0.8"/>
      </g>
     </g>
     <g id="text_5">
      <!-- 20000 -->
      <g transform="translate(604.167428 238.878438) scale(0.1 -0.1)">
       <defs>
        <path id="DejaVuSans-32" d="M 1228 531 
L 3431 531 
L 3431 0 
L 469 0 
L 469 531 
Q 828 903 1448 1529 
Q 2069 2156 2228 2338 
Q 2531 2678 2651 2914 
Q 2772 3150 2772 3378 
Q 2772 3750 2511 3984 
Q 2250 4219 1831 4219 
Q 1534 4219 1204 4116 
Q 875 4013 500 3803 
L 500 4441 
Q 881 4594 1212 4672 
Q 1544 4750 1819 4750 
Q 2544 4750 2975 4387 
Q 3406 4025 3406 3419 
Q 3406 3131 3298 2873 
Q 3191 2616 2906 2266 
Q 2828 2175 2409 1742 
Q 1991 1309 1228 531 
z
" transform="scale(0.015625)"/>
       </defs>
       <use xlink:href="#DejaVuSans-32"/>
       <use xlink:href="#DejaVuSans-30" x="63.623047"/>
       <use xlink:href="#DejaVuSans-30" x="127.246094"/>
       <use xlink:href="#DejaVuSans-30" x="190.869141"/>
       <use xlink:href="#DejaVuSans-30" x="254.492188"/>
      </g>
     </g>
    </g>
    <g id="xtick_6">
     <g id="line2d_11">
      <path d="M 731.830734 224.28 
L 731.830734 30.24 
" clip-path="url(#pc36408c3e2)" style="fill: none; stroke-dasharray: 9.6,2.4,1.5,2.4; stroke-dashoffset: 0; stroke: #808080; stroke-opacity: 0.25; stroke-width: 1.5"/>
     </g>
     <g id="line2d_12">
      <g>
       <use xlink:href="#mc1e3d3409b" x="731.830734" y="224.28" style="stroke: #000000; stroke-width: 0.8"/>
      </g>
     </g>
     <g id="text_6">
      <!-- 25000 -->
      <g transform="translate(715.924484 238.878438) scale(0.1 -0.1)">
       <use xlink:href="#DejaVuSans-32"/>
       <use xlink:href="#DejaVuSans-35" x="63.623047"/>
       <use xlink:href="#DejaVuSans-30" x="127.246094"/>
       <use xlink:href="#DejaVuSans-30" x="190.869141"/>
       <use xlink:href="#DejaVuSans-30" x="254.492188"/>
      </g>
     </g>
    </g>
    <g id="xtick_7">
     <g id="line2d_13">
      <path d="M 843.58779 224.28 
L 843.58779 30.24 
" clip-path="url(#pc36408c3e2)" style="fill: none; stroke-dasharray: 9.6,2.4,1.5,2.4; stroke-dashoffset: 0; stroke: #808080; stroke-opacity: 0.25; stroke-width: 1.5"/>
     </g>
     <g id="line2d_14">
      <g>
       <use xlink:href="#mc1e3d3409b" x="843.58779" y="224.28" style="stroke: #000000; stroke-width: 0.8"/>
      </g>
     </g>
     <g id="text_7">
      <!-- 30000 -->
      <g transform="translate(827.68154 238.878438) scale(0.1 -0.1)">
       <defs>
        <path id="DejaVuSans-33" d="M 2597 2516 
Q 3050 2419 3304 2112 
Q 3559 1806 3559 1356 
Q 3559 666 3084 287 
Q 2609 -91 1734 -91 
Q 1441 -91 1130 -33 
Q 819 25 488 141 
L 488 750 
Q 750 597 1062 519 
Q 1375 441 1716 441 
Q 2309 441 2620 675 
Q 2931 909 2931 1356 
Q 2931 1769 2642 2001 
Q 2353 2234 1838 2234 
L 1294 2234 
L 1294 2753 
L 1863 2753 
Q 2328 2753 2575 2939 
Q 2822 3125 2822 3475 
Q 2822 3834 2567 4026 
Q 2313 4219 1838 4219 
Q 1578 4219 1281 4162 
Q 984 4106 628 3988 
L 628 4550 
Q 988 4650 1302 4700 
Q 1616 4750 1894 4750 
Q 2613 4750 3031 4423 
Q 3450 4097 3450 3541 
Q 3450 3153 3228 2886 
Q 3006 2619 2597 2516 
z
" transform="scale(0.015625)"/>
       </defs>
       <use xlink:href="#DejaVuSans-33"/>
       <use xlink:href="#DejaVuSans-30" x="63.623047"/>
       <use xlink:href="#DejaVuSans-30" x="127.246094"/>
       <use xlink:href="#DejaVuSans-30" x="190.869141"/>
       <use xlink:href="#DejaVuSans-30" x="254.492188"/>
      </g>
     </g>
    </g>
    <g id="xtick_8">
     <g id="line2d_15">
      <path d="M 955.344846 224.28 
L 955.344846 30.24 
" clip-path="url(#pc36408c3e2)" style="fill: none; stroke-dasharray: 9.6,2.4,1.5,2.4; stroke-dashoffset: 0; stroke: #808080; stroke-opacity: 0.25; stroke-width: 1.5"/>
     </g>
     <g id="line2d_16">
      <g>
       <use xlink:href="#mc1e3d3409b" x="955.344846" y="224.28" style="stroke: #000000; stroke-width: 0.8"/>
      </g>
     </g>
     <g id="text_8">
      <!-- 35000 -->
      <g transform="translate(939.438596 238.878438) scale(0.1 -0.1)">
       <use xlink:href="#DejaVuSans-33"/>
       <use xlink:href="#DejaVuSans-35" x="63.623047"/>
       <use xlink:href="#DejaVuSans-30" x="127.246094"/>
       <use xlink:href="#DejaVuSans-30" x="190.869141"/>
       <use xlink:href="#DejaVuSans-30" x="254.492188"/>
      </g>
     </g>
    </g>
    <g id="xtick_9">
     <g id="line2d_17">
      <path d="M 150.694043 224.28 
L 150.694043 30.24 
" clip-path="url(#pc36408c3e2)" style="fill: none; stroke: #f5f5dc; stroke-opacity: 0.5; stroke-linecap: square"/>
     </g>
     <g id="line2d_18">
      <defs>
       <path id="m2256e696df" d="M 0 0 
L 0 2 
" style="stroke: #000000; stroke-width: 0.6"/>
      </defs>
      <g>
       <use xlink:href="#m2256e696df" x="150.694043" y="224.28" style="stroke: #000000; stroke-width: 0.6"/>
      </g>
     </g>
    </g>
    <g id="xtick_10">
     <g id="line2d_19">
      <path d="M 195.396866 224.28 
L 195.396866 30.24 
" clip-path="url(#pc36408c3e2)" style="fill: none; stroke: #f5f5dc; stroke-opacity: 0.5; stroke-linecap: square"/>
     </g>
     <g id="line2d_20">
      <g>
       <use xlink:href="#m2256e696df" x="195.396866" y="224.28" style="stroke: #000000; stroke-width: 0.6"/>
      </g>
     </g>
    </g>
    <g id="xtick_11">
     <g id="line2d_21">
      <path d="M 217.748277 224.28 
L 217.748277 30.24 
" clip-path="url(#pc36408c3e2)" style="fill: none; stroke: #f5f5dc; stroke-opacity: 0.5; stroke-linecap: square"/>
     </g>
     <g id="line2d_22">
      <g>
       <use xlink:href="#m2256e696df" x="217.748277" y="224.28" style="stroke: #000000; stroke-width: 0.6"/>
      </g>
     </g>
    </g>
    <g id="xtick_12">
     <g id="line2d_23">
      <path d="M 240.099688 224.28 
L 240.099688 30.24 
" clip-path="url(#pc36408c3e2)" style="fill: none; stroke: #f5f5dc; stroke-opacity: 0.5; stroke-linecap: square"/>
     </g>
     <g id="line2d_24">
      <g>
       <use xlink:href="#m2256e696df" x="240.099688" y="224.28" style="stroke: #000000; stroke-width: 0.6"/>
      </g>
     </g>
    </g>
    <g id="xtick_13">
     <g id="line2d_25">
      <path d="M 262.451099 224.28 
L 262.451099 30.24 
" clip-path="url(#pc36408c3e2)" style="fill: none; stroke: #f5f5dc; stroke-opacity: 0.5; stroke-linecap: square"/>
     </g>
     <g id="line2d_26">
      <g>
       <use xlink:href="#m2256e696df" x="262.451099" y="224.28" style="stroke: #000000; stroke-width: 0.6"/>
      </g>
     </g>
    </g>
    <g id="xtick_14">
     <g id="line2d_27">
      <path d="M 307.153922 224.28 
L 307.153922 30.24 
" clip-path="url(#pc36408c3e2)" style="fill: none; stroke: #f5f5dc; stroke-opacity: 0.5; stroke-linecap: square"/>
     </g>
     <g id="line2d_28">
      <g>
       <use xlink:href="#m2256e696df" x="307.153922" y="224.28" style="stroke: #000000; stroke-width: 0.6"/>
      </g>
     </g>
    </g>
    <g id="xtick_15">
     <g id="line2d_29">
      <path d="M 329.505333 224.28 
L 329.505333 30.24 
" clip-path="url(#pc36408c3e2)" style="fill: none; stroke: #f5f5dc; stroke-opacity: 0.5; stroke-linecap: square"/>
     </g>
     <g id="line2d_30">
      <g>
       <use xlink:href="#m2256e696df" x="329.505333" y="224.28" style="stroke: #000000; stroke-width: 0.6"/>
      </g>
     </g>
    </g>
    <g id="xtick_16">
     <g id="line2d_31">
      <path d="M 351.856744 224.28 
L 351.856744 30.24 
" clip-path="url(#pc36408c3e2)" style="fill: none; stroke: #f5f5dc; stroke-opacity: 0.5; stroke-linecap: square"/>
     </g>
     <g id="line2d_32">
      <g>
       <use xlink:href="#m2256e696df" x="351.856744" y="224.28" style="stroke: #000000; stroke-width: 0.6"/>
      </g>
     </g>
    </g>
    <g id="xtick_17">
     <g id="line2d_33">
      <path d="M 374.208155 224.28 
L 374.208155 30.24 
" clip-path="url(#pc36408c3e2)" style="fill: none; stroke: #f5f5dc; stroke-opacity: 0.5; stroke-linecap: square"/>
     </g>
     <g id="line2d_34">
      <g>
       <use xlink:href="#m2256e696df" x="374.208155" y="224.28" style="stroke: #000000; stroke-width: 0.6"/>
      </g>
     </g>
    </g>
    <g id="xtick_18">
     <g id="line2d_35">
      <path d="M 418.910978 224.28 
L 418.910978 30.24 
" clip-path="url(#pc36408c3e2)" style="fill: none; stroke: #f5f5dc; stroke-opacity: 0.5; stroke-linecap: square"/>
     </g>
     <g id="line2d_36">
      <g>
       <use xlink:href="#m2256e696df" x="418.910978" y="224.28" style="stroke: #000000; stroke-width: 0.6"/>
      </g>
     </g>
    </g>
    <g id="xtick_19">
     <g id="line2d_37">
      <path d="M 441.262389 224.28 
L 441.262389 30.24 
" clip-path="url(#pc36408c3e2)" style="fill: none; stroke: #f5f5dc; stroke-opacity: 0.5; stroke-linecap: square"/>
     </g>
     <g id="line2d_38">
      <g>
       <use xlink:href="#m2256e696df" x="441.262389" y="224.28" style="stroke: #000000; stroke-width: 0.6"/>
      </g>
     </g>
    </g>
    <g id="xtick_20">
     <g id="line2d_39">
      <path d="M 463.6138 224.28 
L 463.6138 30.24 
" clip-path="url(#pc36408c3e2)" style="fill: none; stroke: #f5f5dc; stroke-opacity: 0.5; stroke-linecap: square"/>
     </g>
     <g id="line2d_40">
      <g>
       <use xlink:href="#m2256e696df" x="463.6138" y="224.28" style="stroke: #000000; stroke-width: 0.6"/>
      </g>
     </g>
    </g>
    <g id="xtick_21">
     <g id="line2d_41">
      <path d="M 485.965211 224.28 
L 485.965211 30.24 
" clip-path="url(#pc36408c3e2)" style="fill: none; stroke: #f5f5dc; stroke-opacity: 0.5; stroke-linecap: square"/>
     </g>
     <g id="line2d_42">
      <g>
       <use xlink:href="#m2256e696df" x="485.965211" y="224.28" style="stroke: #000000; stroke-width: 0.6"/>
      </g>
     </g>
    </g>
    <g id="xtick_22">
     <g id="line2d_43">
      <path d="M 530.668033 224.28 
L 530.668033 30.24 
" clip-path="url(#pc36408c3e2)" style="fill: none; stroke: #f5f5dc; stroke-opacity: 0.5; stroke-linecap: square"/>
     </g>
     <g id="line2d_44">
      <g>
       <use xlink:href="#m2256e696df" x="530.668033" y="224.28" style="stroke: #000000; stroke-width: 0.6"/>
      </g>
     </g>
    </g>
    <g id="xtick_23">
     <g id="line2d_45">
      <path d="M 553.019445 224.28 
L 553.019445 30.24 
" clip-path="url(#pc36408c3e2)" style="fill: none; stroke: #f5f5dc; stroke-opacity: 0.5; stroke-linecap: square"/>
     </g>
     <g id="line2d_46">
      <g>
       <use xlink:href="#m2256e696df" x="553.019445" y="224.28" style="stroke: #000000; stroke-width: 0.6"/>
      </g>
     </g>
    </g>
    <g id="xtick_24">
     <g id="line2d_47">
      <path d="M 575.370856 224.28 
L 575.370856 30.24 
" clip-path="url(#pc36408c3e2)" style="fill: none; stroke: #f5f5dc; stroke-opacity: 0.5; stroke-linecap: square"/>
     </g>
     <g id="line2d_48">
      <g>
       <use xlink:href="#m2256e696df" x="575.370856" y="224.28" style="stroke: #000000; stroke-width: 0.6"/>
      </g>
     </g>
    </g>
    <g id="xtick_25">
     <g id="line2d_49">
      <path d="M 597.722267 224.28 
L 597.722267 30.24 
" clip-path="url(#pc36408c3e2)" style="fill: none; stroke: #f5f5dc; stroke-opacity: 0.5; stroke-linecap: square"/>
     </g>
     <g id="line2d_50">
      <g>
       <use xlink:href="#m2256e696df" x="597.722267" y="224.28" style="stroke: #000000; stroke-width: 0.6"/>
      </g>
     </g>
    </g>
    <g id="xtick_26">
     <g id="line2d_51">
      <path d="M 642.425089 224.28 
L 642.425089 30.24 
" clip-path="url(#pc36408c3e2)" style="fill: none; stroke: #f5f5dc; stroke-opacity: 0.5; stroke-linecap: square"/>
     </g>
     <g id="line2d_52">
      <g>
       <use xlink:href="#m2256e696df" x="642.425089" y="224.28" style="stroke: #000000; stroke-width: 0.6"/>
      </g>
     </g>
    </g>
    <g id="xtick_27">
     <g id="line2d_53">
      <path d="M 664.776501 224.28 
L 664.776501 30.24 
" clip-path="url(#pc36408c3e2)" style="fill: none; stroke: #f5f5dc; stroke-opacity: 0.5; stroke-linecap: square"/>
     </g>
     <g id="line2d_54">
      <g>
       <use xlink:href="#m2256e696df" x="664.776501" y="224.28" style="stroke: #000000; stroke-width: 0.6"/>
      </g>
     </g>
    </g>
    <g id="xtick_28">
     <g id="line2d_55">
      <path d="M 687.127912 224.28 
L 687.127912 30.24 
" clip-path="url(#pc36408c3e2)" style="fill: none; stroke: #f5f5dc; stroke-opacity: 0.5; stroke-linecap: square"/>
     </g>
     <g id="line2d_56">
      <g>
       <use xlink:href="#m2256e696df" x="687.127912" y="224.28" style="stroke: #000000; stroke-width: 0.6"/>
      </g>
     </g>
    </g>
    <g id="xtick_29">
     <g id="line2d_57">
      <path d="M 709.479323 224.28 
L 709.479323 30.24 
" clip-path="url(#pc36408c3e2)" style="fill: none; stroke: #f5f5dc; stroke-opacity: 0.5; stroke-linecap: square"/>
     </g>
     <g id="line2d_58">
      <g>
       <use xlink:href="#m2256e696df" x="709.479323" y="224.28" style="stroke: #000000; stroke-width: 0.6"/>
      </g>
     </g>
    </g>
    <g id="xtick_30">
     <g id="line2d_59">
      <path d="M 754.182145 224.28 
L 754.182145 30.24 
" clip-path="url(#pc36408c3e2)" style="fill: none; stroke: #f5f5dc; stroke-opacity: 0.5; stroke-linecap: square"/>
     </g>
     <g id="line2d_60">
      <g>
       <use xlink:href="#m2256e696df" x="754.182145" y="224.28" style="stroke: #000000; stroke-width: 0.6"/>
      </g>
     </g>
    </g>
    <g id="xtick_31">
     <g id="line2d_61">
      <path d="M 776.533556 224.28 
L 776.533556 30.24 
" clip-path="url(#pc36408c3e2)" style="fill: none; stroke: #f5f5dc; stroke-opacity: 0.5; stroke-linecap: square"/>
     </g>
     <g id="line2d_62">
      <g>
       <use xlink:href="#m2256e696df" x="776.533556" y="224.28" style="stroke: #000000; stroke-width: 0.6"/>
      </g>
     </g>
    </g>
    <g id="xtick_32">
     <g id="line2d_63">
      <path d="M 798.884968 224.28 
L 798.884968 30.24 
" clip-path="url(#pc36408c3e2)" style="fill: none; stroke: #f5f5dc; stroke-opacity: 0.5; stroke-linecap: square"/>
     </g>
     <g id="line2d_64">
      <g>
       <use xlink:href="#m2256e696df" x="798.884968" y="224.28" style="stroke: #000000; stroke-width: 0.6"/>
      </g>
     </g>
    </g>
    <g id="xtick_33">
     <g id="line2d_65">
      <path d="M 821.236379 224.28 
L 821.236379 30.24 
" clip-path="url(#pc36408c3e2)" style="fill: none; stroke: #f5f5dc; stroke-opacity: 0.5; stroke-linecap: square"/>
     </g>
     <g id="line2d_66">
      <g>
       <use xlink:href="#m2256e696df" x="821.236379" y="224.28" style="stroke: #000000; stroke-width: 0.6"/>
      </g>
     </g>
    </g>
    <g id="xtick_34">
     <g id="line2d_67">
      <path d="M 865.939201 224.28 
L 865.939201 30.24 
" clip-path="url(#pc36408c3e2)" style="fill: none; stroke: #f5f5dc; stroke-opacity: 0.5; stroke-linecap: square"/>
     </g>
     <g id="line2d_68">
      <g>
       <use xlink:href="#m2256e696df" x="865.939201" y="224.28" style="stroke: #000000; stroke-width: 0.6"/>
      </g>
     </g>
    </g>
    <g id="xtick_35">
     <g id="line2d_69">
      <path d="M 888.290612 224.28 
L 888.290612 30.24 
" clip-path="url(#pc36408c3e2)" style="fill: none; stroke: #f5f5dc; stroke-opacity: 0.5; stroke-linecap: square"/>
     </g>
     <g id="line2d_70">
      <g>
       <use xlink:href="#m2256e696df" x="888.290612" y="224.28" style="stroke: #000000; stroke-width: 0.6"/>
      </g>
     </g>
    </g>
    <g id="xtick_36">
     <g id="line2d_71">
      <path d="M 910.642024 224.28 
L 910.642024 30.24 
" clip-path="url(#pc36408c3e2)" style="fill: none; stroke: #f5f5dc; stroke-opacity: 0.5; stroke-linecap: square"/>
     </g>
     <g id="line2d_72">
      <g>
       <use xlink:href="#m2256e696df" x="910.642024" y="224.28" style="stroke: #000000; stroke-width: 0.6"/>
      </g>
     </g>
    </g>
    <g id="xtick_37">
     <g id="line2d_73">
      <path d="M 932.993435 224.28 
L 932.993435 30.24 
" clip-path="url(#pc36408c3e2)" style="fill: none; stroke: #f5f5dc; stroke-opacity: 0.5; stroke-linecap: square"/>
     </g>
     <g id="line2d_74">
      <g>
       <use xlink:href="#m2256e696df" x="932.993435" y="224.28" style="stroke: #000000; stroke-width: 0.6"/>
      </g>
     </g>
    </g>
    <g id="text_9">
     <!-- Time [s] -->
     <g transform="translate(533.171094 252.556563) scale(0.1 -0.1)">
      <defs>
       <path id="DejaVuSans-54" d="M -19 4666 
L 3928 4666 
L 3928 4134 
L 2272 4134 
L 2272 0 
L 1638 0 
L 1638 4134 
L -19 4134 
L -19 4666 
z
" transform="scale(0.015625)"/>
       <path id="DejaVuSans-69" d="M 603 3500 
L 1178 3500 
L 1178 0 
L 603 0 
L 603 3500 
z
M 603 4863 
L 1178 4863 
L 1178 4134 
L 603 4134 
L 603 4863 
z
" transform="scale(0.015625)"/>
       <path id="DejaVuSans-6d" d="M 3328 2828 
Q 3544 3216 3844 3400 
Q 4144 3584 4550 3584 
Q 5097 3584 5394 3201 
Q 5691 2819 5691 2113 
L 5691 0 
L 5113 0 
L 5113 2094 
Q 5113 2597 4934 2840 
Q 4756 3084 4391 3084 
Q 3944 3084 3684 2787 
Q 3425 2491 3425 1978 
L 3425 0 
L 2847 0 
L 2847 2094 
Q 2847 2600 2669 2842 
Q 2491 3084 2119 3084 
Q 1678 3084 1418 2786 
Q 1159 2488 1159 1978 
L 1159 0 
L 581 0 
L 581 3500 
L 1159 3500 
L 1159 2956 
Q 1356 3278 1631 3431 
Q 1906 3584 2284 3584 
Q 2666 3584 2933 3390 
Q 3200 3197 3328 2828 
z
" transform="scale(0.015625)"/>
       <path id="DejaVuSans-65" d="M 3597 1894 
L 3597 1613 
L 953 1613 
Q 991 1019 1311 708 
Q 1631 397 2203 397 
Q 2534 397 2845 478 
Q 3156 559 3463 722 
L 3463 178 
Q 3153 47 2828 -22 
Q 2503 -91 2169 -91 
Q 1331 -91 842 396 
Q 353 884 353 1716 
Q 353 2575 817 3079 
Q 1281 3584 2069 3584 
Q 2775 3584 3186 3129 
Q 3597 2675 3597 1894 
z
M 3022 2063 
Q 3016 2534 2758 2815 
Q 2500 3097 2075 3097 
Q 1594 3097 1305 2825 
Q 1016 2553 972 2059 
L 3022 2063 
z
" transform="scale(0.015625)"/>
       <path id="DejaVuSans-20" transform="scale(0.015625)"/>
       <path id="DejaVuSans-5b" d="M 550 4863 
L 1875 4863 
L 1875 4416 
L 1125 4416 
L 1125 -397 
L 1875 -397 
L 1875 -844 
L 550 -844 
L 550 4863 
z
" transform="scale(0.015625)"/>
       <path id="DejaVuSans-73" d="M 2834 3397 
L 2834 2853 
Q 2591 2978 2328 3040 
Q 2066 3103 1784 3103 
Q 1356 3103 1142 2972 
Q 928 2841 928 2578 
Q 928 2378 1081 2264 
Q 1234 2150 1697 2047 
L 1894 2003 
Q 2506 1872 2764 1633 
Q 3022 1394 3022 966 
Q 3022 478 2636 193 
Q 2250 -91 1575 -91 
Q 1294 -91 989 -36 
Q 684 19 347 128 
L 347 722 
Q 666 556 975 473 
Q 1284 391 1588 391 
Q 1994 391 2212 530 
Q 2431 669 2431 922 
Q 2431 1156 2273 1281 
Q 2116 1406 1581 1522 
L 1381 1569 
Q 847 1681 609 1914 
Q 372 2147 372 2553 
Q 372 3047 722 3315 
Q 1072 3584 1716 3584 
Q 2034 3584 2315 3537 
Q 2597 3491 2834 3397 
z
" transform="scale(0.015625)"/>
       <path id="DejaVuSans-5d" d="M 1947 4863 
L 1947 -844 
L 622 -844 
L 622 -397 
L 1369 -397 
L 1369 4416 
L 622 4416 
L 622 4863 
L 1947 4863 
z
" transform="scale(0.015625)"/>
      </defs>
      <use xlink:href="#DejaVuSans-54"/>
      <use xlink:href="#DejaVuSans-69" x="57.958984"/>
      <use xlink:href="#DejaVuSans-6d" x="85.742188"/>
      <use xlink:href="#DejaVuSans-65" x="183.154297"/>
      <use xlink:href="#DejaVuSans-20" x="244.677734"/>
      <use xlink:href="#DejaVuSans-5b" x="276.464844"/>
      <use xlink:href="#DejaVuSans-73" x="315.478516"/>
      <use xlink:href="#DejaVuSans-5d" x="367.578125"/>
     </g>
    </g>
   </g>
   <g id="matplotlib.axis_2">
    <g id="ytick_1">
     <g id="line2d_75">
      <path d="M 135 215.327848 
L 972 215.327848 
" clip-path="url(#pc36408c3e2)" style="fill: none; stroke-dasharray: 9.6,2.4,1.5,2.4; stroke-dashoffset: 0; stroke: #808080; stroke-opacity: 0.25; stroke-width: 1.5"/>
     </g>
     <g id="line2d_76">
      <defs>
       <path id="m1698c33f80" d="M 0 0 
L -3.5 0 
" style="stroke: #000000; stroke-width: 0.8"/>
      </defs>
      <g>
       <use xlink:href="#m1698c33f80" x="135" y="215.327848" style="stroke: #000000; stroke-width: 0.8"/>
      </g>
     </g>
     <g id="text_10">
      <!-- −20 -->
      <g transform="translate(106.895313 219.127066) scale(0.1 -0.1)">
       <defs>
        <path id="DejaVuSans-2212" d="M 678 2272 
L 4684 2272 
L 4684 1741 
L 678 1741 
L 678 2272 
z
" transform="scale(0.015625)"/>
       </defs>
       <use xlink:href="#DejaVuSans-2212"/>
       <use xlink:href="#DejaVuSans-32" x="83.789062"/>
       <use xlink:href="#DejaVuSans-30" x="147.412109"/>
      </g>
     </g>
    </g>
    <g id="ytick_2">
     <g id="line2d_77">
      <path d="M 135 185.960641 
L 972 185.960641 
" clip-path="url(#pc36408c3e2)" style="fill: none; stroke-dasharray: 9.6,2.4,1.5,2.4; stroke-dashoffset: 0; stroke: #808080; stroke-opacity: 0.25; stroke-width: 1.5"/>
     </g>
     <g id="line2d_78">
      <g>
       <use xlink:href="#m1698c33f80" x="135" y="185.960641" style="stroke: #000000; stroke-width: 0.8"/>
      </g>
     </g>
     <g id="text_11">
      <!-- −15 -->
      <g transform="translate(106.895313 189.75986) scale(0.1 -0.1)">
       <use xlink:href="#DejaVuSans-2212"/>
       <use xlink:href="#DejaVuSans-31" x="83.789062"/>
       <use xlink:href="#DejaVuSans-35" x="147.412109"/>
      </g>
     </g>
    </g>
    <g id="ytick_3">
     <g id="line2d_79">
      <path d="M 135 156.593434 
L 972 156.593434 
" clip-path="url(#pc36408c3e2)" style="fill: none; stroke-dasharray: 9.6,2.4,1.5,2.4; stroke-dashoffset: 0; stroke: #808080; stroke-opacity: 0.25; stroke-width: 1.5"/>
     </g>
     <g id="line2d_80">
      <g>
       <use xlink:href="#m1698c33f80" x="135" y="156.593434" style="stroke: #000000; stroke-width: 0.8"/>
      </g>
     </g>
     <g id="text_12">
      <!-- −10 -->
      <g transform="translate(106.895313 160.392653) scale(0.1 -0.1)">
       <use xlink:href="#DejaVuSans-2212"/>
       <use xlink:href="#DejaVuSans-31" x="83.789062"/>
       <use xlink:href="#DejaVuSans-30" x="147.412109"/>
      </g>
     </g>
    </g>
    <g id="ytick_4">
     <g id="line2d_81">
      <path d="M 135 127.226228 
L 972 127.226228 
" clip-path="url(#pc36408c3e2)" style="fill: none; stroke-dasharray: 9.6,2.4,1.5,2.4; stroke-dashoffset: 0; stroke: #808080; stroke-opacity: 0.25; stroke-width: 1.5"/>
     </g>
     <g id="line2d_82">
      <g>
       <use xlink:href="#m1698c33f80" x="135" y="127.226228" style="stroke: #000000; stroke-width: 0.8"/>
      </g>
     </g>
     <g id="text_13">
      <!-- −5 -->
      <g transform="translate(113.257812 131.025446) scale(0.1 -0.1)">
       <use xlink:href="#DejaVuSans-2212"/>
       <use xlink:href="#DejaVuSans-35" x="83.789062"/>
      </g>
     </g>
    </g>
    <g id="ytick_5">
     <g id="line2d_83">
      <path d="M 135 97.859021 
L 972 97.859021 
" clip-path="url(#pc36408c3e2)" style="fill: none; stroke-dasharray: 9.6,2.4,1.5,2.4; stroke-dashoffset: 0; stroke: #808080; stroke-opacity: 0.25; stroke-width: 1.5"/>
     </g>
     <g id="line2d_84">
      <g>
       <use xlink:href="#m1698c33f80" x="135" y="97.859021" style="stroke: #000000; stroke-width: 0.8"/>
      </g>
     </g>
     <g id="text_14">
      <!-- 0 -->
      <g transform="translate(121.6375 101.65824) scale(0.1 -0.1)">
       <use xlink:href="#DejaVuSans-30"/>
      </g>
     </g>
    </g>
    <g id="ytick_6">
     <g id="line2d_85">
      <path d="M 135 68.491814 
L 972 68.491814 
" clip-path="url(#pc36408c3e2)" style="fill: none; stroke-dasharray: 9.6,2.4,1.5,2.4; stroke-dashoffset: 0; stroke: #808080; stroke-opacity: 0.25; stroke-width: 1.5"/>
     </g>
     <g id="line2d_86">
      <g>
       <use xlink:href="#m1698c33f80" x="135" y="68.491814" style="stroke: #000000; stroke-width: 0.8"/>
      </g>
     </g>
     <g id="text_15">
      <!-- 5 -->
      <g transform="translate(121.6375 72.291033) scale(0.1 -0.1)">
       <use xlink:href="#DejaVuSans-35"/>
      </g>
     </g>
    </g>
    <g id="ytick_7">
     <g id="line2d_87">
      <path d="M 135 39.124608 
L 972 39.124608 
" clip-path="url(#pc36408c3e2)" style="fill: none; stroke-dasharray: 9.6,2.4,1.5,2.4; stroke-dashoffset: 0; stroke: #808080; stroke-opacity: 0.25; stroke-width: 1.5"/>
     </g>
     <g id="line2d_88">
      <g>
       <use xlink:href="#m1698c33f80" x="135" y="39.124608" style="stroke: #000000; stroke-width: 0.8"/>
      </g>
     </g>
     <g id="text_16">
      <!-- 10 -->
      <g transform="translate(115.275 42.923827) scale(0.1 -0.1)">
       <use xlink:href="#DejaVuSans-31"/>
       <use xlink:href="#DejaVuSans-30" x="63.623047"/>
      </g>
     </g>
    </g>
    <g id="ytick_8">
     <g id="line2d_89">
      <path d="M 135 221.201289 
L 972 221.201289 
" clip-path="url(#pc36408c3e2)" style="fill: none; stroke: #f5f5dc; stroke-opacity: 0.5; stroke-linecap: square"/>
     </g>
     <g id="line2d_90">
      <defs>
       <path id="m66455ba426" d="M 0 0 
L -2 0 
" style="stroke: #000000; stroke-width: 0.6"/>
      </defs>
      <g>
       <use xlink:href="#m66455ba426" x="135" y="221.201289" style="stroke: #000000; stroke-width: 0.6"/>
      </g>
     </g>
    </g>
    <g id="ytick_9">
     <g id="line2d_91">
      <path d="M 135 209.454406 
L 972 209.454406 
" clip-path="url(#pc36408c3e2)" style="fill: none; stroke: #f5f5dc; stroke-opacity: 0.5; stroke-linecap: square"/>
     </g>
     <g id="line2d_92">
      <g>
       <use xlink:href="#m66455ba426" x="135" y="209.454406" style="stroke: #000000; stroke-width: 0.6"/>
      </g>
     </g>
    </g>
    <g id="ytick_10">
     <g id="line2d_93">
      <path d="M 135 203.580965 
L 972 203.580965 
" clip-path="url(#pc36408c3e2)" style="fill: none; stroke: #f5f5dc; stroke-opacity: 0.5; stroke-linecap: square"/>
     </g>
     <g id="line2d_94">
      <g>
       <use xlink:href="#m66455ba426" x="135" y="203.580965" style="stroke: #000000; stroke-width: 0.6"/>
      </g>
     </g>
    </g>
    <g id="ytick_11">
     <g id="line2d_95">
      <path d="M 135 197.707524 
L 972 197.707524 
" clip-path="url(#pc36408c3e2)" style="fill: none; stroke: #f5f5dc; stroke-opacity: 0.5; stroke-linecap: square"/>
     </g>
     <g id="line2d_96">
      <g>
       <use xlink:href="#m66455ba426" x="135" y="197.707524" style="stroke: #000000; stroke-width: 0.6"/>
      </g>
     </g>
    </g>
    <g id="ytick_12">
     <g id="line2d_97">
      <path d="M 135 191.834082 
L 972 191.834082 
" clip-path="url(#pc36408c3e2)" style="fill: none; stroke: #f5f5dc; stroke-opacity: 0.5; stroke-linecap: square"/>
     </g>
     <g id="line2d_98">
      <g>
       <use xlink:href="#m66455ba426" x="135" y="191.834082" style="stroke: #000000; stroke-width: 0.6"/>
      </g>
     </g>
    </g>
    <g id="ytick_13">
     <g id="line2d_99">
      <path d="M 135 180.0872 
L 972 180.0872 
" clip-path="url(#pc36408c3e2)" style="fill: none; stroke: #f5f5dc; stroke-opacity: 0.5; stroke-linecap: square"/>
     </g>
     <g id="line2d_100">
      <g>
       <use xlink:href="#m66455ba426" x="135" y="180.0872" style="stroke: #000000; stroke-width: 0.6"/>
      </g>
     </g>
    </g>
    <g id="ytick_14">
     <g id="line2d_101">
      <path d="M 135 174.213758 
L 972 174.213758 
" clip-path="url(#pc36408c3e2)" style="fill: none; stroke: #f5f5dc; stroke-opacity: 0.5; stroke-linecap: square"/>
     </g>
     <g id="line2d_102">
      <g>
       <use xlink:href="#m66455ba426" x="135" y="174.213758" style="stroke: #000000; stroke-width: 0.6"/>
      </g>
     </g>
    </g>
    <g id="ytick_15">
     <g id="line2d_103">
      <path d="M 135 168.340317 
L 972 168.340317 
" clip-path="url(#pc36408c3e2)" style="fill: none; stroke: #f5f5dc; stroke-opacity: 0.5; stroke-linecap: square"/>
     </g>
     <g id="line2d_104">
      <g>
       <use xlink:href="#m66455ba426" x="135" y="168.340317" style="stroke: #000000; stroke-width: 0.6"/>
      </g>
     </g>
    </g>
    <g id="ytick_16">
     <g id="line2d_105">
      <path d="M 135 162.466876 
L 972 162.466876 
" clip-path="url(#pc36408c3e2)" style="fill: none; stroke: #f5f5dc; stroke-opacity: 0.5; stroke-linecap: square"/>
     </g>
     <g id="line2d_106">
      <g>
       <use xlink:href="#m66455ba426" x="135" y="162.466876" style="stroke: #000000; stroke-width: 0.6"/>
      </g>
     </g>
    </g>
    <g id="ytick_17">
     <g id="line2d_107">
      <path d="M 135 150.719993 
L 972 150.719993 
" clip-path="url(#pc36408c3e2)" style="fill: none; stroke: #f5f5dc; stroke-opacity: 0.5; stroke-linecap: square"/>
     </g>
     <g id="line2d_108">
      <g>
       <use xlink:href="#m66455ba426" x="135" y="150.719993" style="stroke: #000000; stroke-width: 0.6"/>
      </g>
     </g>
    </g>
    <g id="ytick_18">
     <g id="line2d_109">
      <path d="M 135 144.846552 
L 972 144.846552 
" clip-path="url(#pc36408c3e2)" style="fill: none; stroke: #f5f5dc; stroke-opacity: 0.5; stroke-linecap: square"/>
     </g>
     <g id="line2d_110">
      <g>
       <use xlink:href="#m66455ba426" x="135" y="144.846552" style="stroke: #000000; stroke-width: 0.6"/>
      </g>
     </g>
    </g>
    <g id="ytick_19">
     <g id="line2d_111">
      <path d="M 135 138.97311 
L 972 138.97311 
" clip-path="url(#pc36408c3e2)" style="fill: none; stroke: #f5f5dc; stroke-opacity: 0.5; stroke-linecap: square"/>
     </g>
     <g id="line2d_112">
      <g>
       <use xlink:href="#m66455ba426" x="135" y="138.97311" style="stroke: #000000; stroke-width: 0.6"/>
      </g>
     </g>
    </g>
    <g id="ytick_20">
     <g id="line2d_113">
      <path d="M 135 133.099669 
L 972 133.099669 
" clip-path="url(#pc36408c3e2)" style="fill: none; stroke: #f5f5dc; stroke-opacity: 0.5; stroke-linecap: square"/>
     </g>
     <g id="line2d_114">
      <g>
       <use xlink:href="#m66455ba426" x="135" y="133.099669" style="stroke: #000000; stroke-width: 0.6"/>
      </g>
     </g>
    </g>
    <g id="ytick_21">
     <g id="line2d_115">
      <path d="M 135 121.352786 
L 972 121.352786 
" clip-path="url(#pc36408c3e2)" style="fill: none; stroke: #f5f5dc; stroke-opacity: 0.5; stroke-linecap: square"/>
     </g>
     <g id="line2d_116">
      <g>
       <use xlink:href="#m66455ba426" x="135" y="121.352786" style="stroke: #000000; stroke-width: 0.6"/>
      </g>
     </g>
    </g>
    <g id="ytick_22">
     <g id="line2d_117">
      <path d="M 135 115.479345 
L 972 115.479345 
" clip-path="url(#pc36408c3e2)" style="fill: none; stroke: #f5f5dc; stroke-opacity: 0.5; stroke-linecap: square"/>
     </g>
     <g id="line2d_118">
      <g>
       <use xlink:href="#m66455ba426" x="135" y="115.479345" style="stroke: #000000; stroke-width: 0.6"/>
      </g>
     </g>
    </g>
    <g id="ytick_23">
     <g id="line2d_119">
      <path d="M 135 109.605904 
L 972 109.605904 
" clip-path="url(#pc36408c3e2)" style="fill: none; stroke: #f5f5dc; stroke-opacity: 0.5; stroke-linecap: square"/>
     </g>
     <g id="line2d_120">
      <g>
       <use xlink:href="#m66455ba426" x="135" y="109.605904" style="stroke: #000000; stroke-width: 0.6"/>
      </g>
     </g>
    </g>
    <g id="ytick_24">
     <g id="line2d_121">
      <path d="M 135 103.732462 
L 972 103.732462 
" clip-path="url(#pc36408c3e2)" style="fill: none; stroke: #f5f5dc; stroke-opacity: 0.5; stroke-linecap: square"/>
     </g>
     <g id="line2d_122">
      <g>
       <use xlink:href="#m66455ba426" x="135" y="103.732462" style="stroke: #000000; stroke-width: 0.6"/>
      </g>
     </g>
    </g>
    <g id="ytick_25">
     <g id="line2d_123">
      <path d="M 135 91.98558 
L 972 91.98558 
" clip-path="url(#pc36408c3e2)" style="fill: none; stroke: #f5f5dc; stroke-opacity: 0.5; stroke-linecap: square"/>
     </g>
     <g id="line2d_124">
      <g>
       <use xlink:href="#m66455ba426" x="135" y="91.98558" style="stroke: #000000; stroke-width: 0.6"/>
      </g>
     </g>
    </g>
    <g id="ytick_26">
     <g id="line2d_125">
      <path d="M 135 86.112138 
L 972 86.112138 
" clip-path="url(#pc36408c3e2)" style="fill: none; stroke: #f5f5dc; stroke-opacity: 0.5; stroke-linecap: square"/>
     </g>
     <g id="line2d_126">
      <g>
       <use xlink:href="#m66455ba426" x="135" y="86.112138" style="stroke: #000000; stroke-width: 0.6"/>
      </g>
     </g>
    </g>
    <g id="ytick_27">
     <g id="line2d_127">
      <path d="M 135 80.238697 
L 972 80.238697 
" clip-path="url(#pc36408c3e2)" style="fill: none; stroke: #f5f5dc; stroke-opacity: 0.5; stroke-linecap: square"/>
     </g>
     <g id="line2d_128">
      <g>
       <use xlink:href="#m66455ba426" x="135" y="80.238697" style="stroke: #000000; stroke-width: 0.6"/>
      </g>
     </g>
    </g>
    <g id="ytick_28">
     <g id="line2d_129">
      <path d="M 135 74.365256 
L 972 74.365256 
" clip-path="url(#pc36408c3e2)" style="fill: none; stroke: #f5f5dc; stroke-opacity: 0.5; stroke-linecap: square"/>
     </g>
     <g id="line2d_130">
      <g>
       <use xlink:href="#m66455ba426" x="135" y="74.365256" style="stroke: #000000; stroke-width: 0.6"/>
      </g>
     </g>
    </g>
    <g id="ytick_29">
     <g id="line2d_131">
      <path d="M 135 62.618373 
L 972 62.618373 
" clip-path="url(#pc36408c3e2)" style="fill: none; stroke: #f5f5dc; stroke-opacity: 0.5; stroke-linecap: square"/>
     </g>
     <g id="line2d_132">
      <g>
       <use xlink:href="#m66455ba426" x="135" y="62.618373" style="stroke: #000000; stroke-width: 0.6"/>
      </g>
     </g>
    </g>
    <g id="ytick_30">
     <g id="line2d_133">
      <path d="M 135 56.744932 
L 972 56.744932 
" clip-path="url(#pc36408c3e2)" style="fill: none; stroke: #f5f5dc; stroke-opacity: 0.5; stroke-linecap: square"/>
     </g>
     <g id="line2d_134">
      <g>
       <use xlink:href="#m66455ba426" x="135" y="56.744932" style="stroke: #000000; stroke-width: 0.6"/>
      </g>
     </g>
    </g>
    <g id="ytick_31">
     <g id="line2d_135">
      <path d="M 135 50.871491 
L 972 50.871491 
" clip-path="url(#pc36408c3e2)" style="fill: none; stroke: #f5f5dc; stroke-opacity: 0.5; stroke-linecap: square"/>
     </g>
     <g id="line2d_136">
      <g>
       <use xlink:href="#m66455ba426" x="135" y="50.871491" style="stroke: #000000; stroke-width: 0.6"/>
      </g>
     </g>
    </g>
    <g id="ytick_32">
     <g id="line2d_137">
      <path d="M 135 44.998049 
L 972 44.998049 
" clip-path="url(#pc36408c3e2)" style="fill: none; stroke: #f5f5dc; stroke-opacity: 0.5; stroke-linecap: square"/>
     </g>
     <g id="line2d_138">
      <g>
       <use xlink:href="#m66455ba426" x="135" y="44.998049" style="stroke: #000000; stroke-width: 0.6"/>
      </g>
     </g>
    </g>
    <g id="ytick_33">
     <g id="line2d_139">
      <path d="M 135 33.251167 
L 972 33.251167 
" clip-path="url(#pc36408c3e2)" style="fill: none; stroke: #f5f5dc; stroke-opacity: 0.5; stroke-linecap: square"/>
     </g>
     <g id="line2d_140">
      <g>
       <use xlink:href="#m66455ba426" x="135" y="33.251167" style="stroke: #000000; stroke-width: 0.6"/>
      </g>
     </g>
    </g>
    <g id="text_17">
     <!-- [A] -->
     <g transform="translate(100.815625 134.581875) rotate(-90) scale(0.1 -0.1)">
      <defs>
       <path id="DejaVuSans-41" d="M 2188 4044 
L 1331 1722 
L 3047 1722 
L 2188 4044 
z
M 1831 4666 
L 2547 4666 
L 4325 0 
L 3669 0 
L 3244 1197 
L 1141 1197 
L 716 0 
L 50 0 
L 1831 4666 
z
" transform="scale(0.015625)"/>
      </defs>
      <use xlink:href="#DejaVuSans-5b"/>
      <use xlink:href="#DejaVuSans-41" x="39.013672"/>
      <use xlink:href="#DejaVuSans-5d" x="107.421875"/>
     </g>
    </g>
   </g>
   <g id="line2d_141">
    <path d="M 173.045455 74.778159 
L 173.268969 80.290383 
L 174.207728 86.718278 
L 174.230079 86.648971 
L 174.252431 86.699483 
L 174.408891 87.262158 
L 174.610053 87.823659 
L 174.677108 87.994576 
L 174.654756 87.782545 
L 174.699459 87.964034 
L 174.833567 88.331712 
L 175.057082 88.665323 
L 175.213541 89.131675 
L 175.235893 88.979552 
L 175.280596 89.242683 
L 175.302947 89.125214 
L 175.370001 89.343706 
L 175.392353 89.499939 
L 175.414704 89.282622 
L 175.459407 89.398916 
L 175.481758 89.302592 
L 175.526461 89.461175 
L 175.749975 89.916954 
L 175.772327 89.76953 
L 175.861732 89.820042 
L 175.995841 90.164226 
L 176.107598 90.217087 
L 176.219355 90.392115 
L 176.241706 90.137795 
L 176.264058 90.554809 
L 176.308761 90.43969 
L 176.442869 90.642324 
L 176.46522 90.53484 
L 176.554626 90.641149 
L 176.666383 90.998254 
L 176.688735 90.91074 
L 176.845194 90.844957 
L 176.956952 91.065799 
L 176.979303 91.015287 
L 177.024006 91.179744 
L 177.068709 91.130994 
L 177.158114 91.502783 
L 177.180466 91.158599 
L 177.269871 91.375917 
L 177.314574 91.425841 
L 177.336925 91.305435 
L 177.471034 91.60733 
L 177.538088 91.443461 
L 177.627494 91.576788 
L 177.716899 91.882795 
L 177.806305 91.780597 
L 177.828657 91.72891 
L 177.851008 91.89043 
L 177.918062 91.792931 
L 177.985116 92.040203 
L 178.029819 92.066633 
L 178.096873 91.883969 
L 178.186279 92.232264 
L 178.230982 92.133003 
L 178.298036 92.101287 
L 178.432145 92.392609 
L 178.566253 92.248123 
L 178.588605 92.313318 
L 178.700362 92.598767 
L 178.745064 92.44547 
L 178.789767 92.580559 
L 178.856821 92.71976 
L 178.901524 92.707426 
L 178.923876 92.461329 
L 179.013281 92.645167 
L 179.035633 92.645167 
L 179.102687 92.811973 
L 179.14739 92.767335 
L 179.326201 93.042799 
L 179.192093 92.703314 
L 179.348552 92.845452 
L 179.370904 92.804337 
L 179.393255 92.978779 
L 179.482661 92.971143 
L 179.505012 93.172015 
L 179.594418 92.971143 
L 179.728526 93.228987 
L 179.750878 93.004034 
L 179.840284 93.148521 
L 179.929689 93.280674 
L 179.952041 93.21724 
L 180.041446 93.411651 
L 180.063798 93.242496 
L 180.086149 93.193747 
L 180.1085 93.319438 
L 180.26496 93.524421 
L 180.287312 93.321788 
L 180.332015 93.593141 
L 180.354366 93.516786 
L 180.466123 93.618396 
L 180.42142 93.455702 
L 180.488474 93.570822 
L 180.711989 93.674194 
L 180.779043 93.63308 
L 180.801394 93.805172 
L 180.846097 93.601363 
L 180.868448 93.852747 
L 180.913151 93.795774 
L 180.935503 93.923228 
L 181.002557 93.753486 
L 181.024908 93.70826 
L 181.04726 94.039522 
L 181.136665 93.843349 
L 181.248422 93.961405 
L 181.270774 93.727055 
L 181.337828 93.98255 
L 181.471937 93.946722 
L 181.494288 94.199867 
L 181.583694 94.040697 
L 181.695451 94.244505 
L 181.717802 94.026013 
L 181.807208 94.113528 
L 181.874262 94.238045 
L 181.918965 94.1705 
L 181.963668 94.125274 
L 182.097776 94.416597 
L 182.187182 94.238045 
L 182.209533 94.310875 
L 182.231885 94.439504 
L 182.32129 94.322622 
L 182.410696 94.514684 
L 182.365993 94.280333 
L 182.433047 94.35845 
L 182.500101 94.390167 
L 182.589507 94.533479 
L 182.611859 94.481792 
L 182.678913 94.407787 
L 182.723616 94.484142 
L 182.813021 94.474744 
L 182.857724 94.738462 
L 182.94713 94.638026 
L 183.192995 94.75432 
L 183.215347 94.672092 
L 183.237698 94.837723 
L 183.260049 94.833611 
L 183.282401 94.901156 
L 183.327104 94.781925 
L 183.394158 94.642137 
L 183.371807 94.880012 
L 183.438861 94.673854 
L 183.572969 94.919951 
L 183.617672 94.824801 
L 183.662375 94.843009 
L 183.796483 95.025673 
L 183.863538 94.881774 
L 183.90824 94.995131 
L 183.930592 94.968701 
L 184.019997 95.124934 
L 184.042349 95.060326 
L 184.0647 95.048579 
L 184.087052 94.885298 
L 184.154106 94.987496 
L 184.243512 95.184843 
L 184.265863 95.065612 
L 184.310566 94.91349 
L 184.355269 95.010989 
L 184.37762 95.213623 
L 184.467026 95.10379 
L 184.556431 95.134332 
L 184.668188 95.376905 
L 184.601134 95.117299 
L 184.69054 95.310535 
L 184.712891 95.120823 
L 184.802297 95.270596 
L 184.869351 95.166048 
L 184.891702 95.359284 
L 184.981108 95.220671 
L 185.00346 95.294677 
L 185.137568 95.299963 
L 185.249325 95.52609 
L 185.294028 95.201876 
L 185.383434 95.31817 
L 185.405785 95.294677 
L 185.495191 95.445624 
L 185.472839 95.229481 
L 185.517542 95.387477 
L 185.741056 95.600096 
L 185.763408 95.527852 
L 185.785759 95.672926 
L 185.830462 95.486738 
L 185.852813 95.603032 
L 185.919867 95.502596 
L 185.942219 95.591285 
L 185.96457 95.655893 
L 185.986922 95.403335 
L 186.053976 95.596571 
L 186.188084 95.538424 
L 186.322193 95.701119 
L 186.456301 95.633574 
L 186.501004 95.809777 
L 186.545707 95.600096 
L 186.568058 95.73401 
L 186.59041 95.543711 
L 186.657464 95.708754 
L 186.702167 95.607144 
L 186.769221 95.809777 
L 186.813924 95.611255 
L 186.836275 95.929008 
L 186.858627 95.712866 
L 186.925681 95.691721 
L 186.970384 95.916674 
L 187.059789 95.802729 
L 187.082141 95.815064 
L 187.126844 95.940755 
L 187.193898 95.833271 
L 187.216249 95.670577 
L 187.305655 95.790982 
L 187.328006 96.045302 
L 187.417412 95.817413 
L 187.506818 95.845018 
L 187.618575 96.072908 
L 187.640926 95.957788 
L 187.70798 96.088766 
L 187.685629 95.84678 
L 187.752683 96.059986 
L 187.842089 95.82916 
L 187.86444 96.009474 
L 187.909143 96.10991 
L 187.931494 96.067621 
L 187.953846 95.919611 
L 187.998549 96.200361 
L 188.043251 96.0083 
L 188.087954 96.045302 
L 188.110306 95.86675 
L 188.155009 96.186852 
L 188.199711 95.96836 
L 188.244414 95.910213 
L 188.378523 96.189789 
L 188.49028 95.9619 
L 188.467928 96.235602 
L 188.512631 95.98833 
L 188.602037 96.237364 
L 188.624388 96.022983 
L 188.691442 95.98833 
L 188.736145 96.213283 
L 188.780848 96.035905 
L 188.825551 96.279653 
L 188.847902 96.133991 
L 189.004362 96.138103 
L 189.026714 96.357769 
L 189.049065 96.082305 
L 189.093768 96.19625 
L 189.116119 96.131055 
L 189.160822 96.275541 
L 189.183173 96.365405 
L 189.205525 96.207997 
L 189.227876 96.065272 
L 189.272579 96.300797 
L 189.317282 96.207997 
L 189.339633 96.292574 
L 189.406688 96.22268 
L 189.429039 96.120482 
L 189.45139 96.338974 
L 189.518445 96.160422 
L 189.563147 96.114022 
L 189.630202 96.492859 
L 189.719607 96.219744 
L 189.831364 97.859021 
L 229.952147 97.859021 
L 230.041553 215.346055 
L 230.063904 215.321974 
L 230.62269 215.315513 
L 231.025015 215.309053 
L 231.159124 215.34723 
L 231.248529 215.314339 
L 231.293232 215.346055 
L 231.516746 215.332546 
L 231.717909 215.321974 
L 231.941423 215.326086 
L 232.075531 215.32726 
L 232.3661 215.34723 
L 232.500208 215.307878 
L 232.52256 215.352516 
L 232.880182 215.330197 
L 233.103696 215.337832 
L 233.282508 215.321974 
L 233.438968 215.343706 
L 233.684833 215.323736 
L 233.863644 215.346055 
L 234.310673 215.319625 
L 234.757701 215.315513 
L 234.936512 215.346055 
L 235.070621 215.330197 
L 235.584703 215.304941 
L 235.69646 215.323736 
L 235.987028 215.319625 
L 236.143488 215.32726 
L 236.367002 215.307878 
L 236.478759 215.329022 
L 236.612868 215.303766 
L 236.724625 215.315513 
L 236.970491 215.311402 
L 237.104599 215.34723 
L 237.194005 215.309053 
L 237.216356 215.324911 
L 237.372816 215.336658 
L 237.506924 215.313164 
L 237.618681 215.336658 
L 237.641033 215.306116 
L 237.998655 215.32726 
L 238.110412 97.859021 
L 278.231196 97.859021 
L 278.29825 215.339594 
L 278.342953 215.313164 
L 278.566467 215.299655 
L 278.834684 215.332546 
L 278.968792 215.310227 
L 279.080549 215.352516 
L 279.102901 215.323736 
L 279.281712 215.310227 
L 279.505226 215.321974 
L 279.616983 215.310227 
L 279.639334 215.340769 
L 280.086363 215.323736 
L 280.19812 215.324911 
L 280.868662 215.31845 
L 314.172265 215.287908 
L 314.284022 97.859021 
L 354.404805 97.859021 
L 354.449508 215.352516 
L 354.516562 215.320799 
L 354.673022 215.324911 
L 354.829482 215.30083 
L 354.96359 215.343706 
L 355.790592 215.315513 
L 355.947052 215.341944 
L 356.170566 215.319625 
L 357.802219 215.339594 
L 358.025733 215.348992 
L 358.29395 215.304941 
L 358.428059 215.320799 
L 358.60687 215.315513 
L 358.852736 215.343706 
L 359.188007 215.339594 
L 359.38917 215.335483 
L 359.500927 215.321974 
L 359.657387 215.321974 
L 360.842011 215.315513 
L 361.065525 215.316688 
L 361.221985 215.336658 
L 361.579608 215.320799 
L 361.780771 215.337832 
L 362.071339 215.336658 
L 362.361907 215.321974 
L 362.451313 215.32726 
L 362.56307 97.859021 
L 402.683853 97.859021 
L 402.728556 215.329022 
L 402.79561 215.323736 
L 403.019124 215.331372 
L 403.175584 215.331372 
L 404.091992 215.315513 
L 404.2261 215.320799 
L 404.516669 215.351341 
L 410.730361 215.46 
L 410.842118 97.859021 
L 450.962901 97.859021 
L 450.985253 215.316688 
L 451.074658 215.307878 
L 452.929825 215.29848 
L 453.376854 215.29202 
L 453.510962 215.337832 
L 453.645071 215.29202 
L 453.823882 215.321974 
L 454.762641 215.309053 
L 454.89675 215.326086 
L 456.573105 215.314339 
L 456.818971 215.30083 
L 456.953079 215.330197 
L 457.109539 215.304941 
L 457.243648 215.315513 
L 457.377756 215.329022 
L 457.713027 215.30083 
L 457.824784 215.32726 
L 457.847136 215.306116 
L 457.958893 215.34723 
L 457.981244 215.31845 
L 458.137704 215.311402 
L 458.741192 215.319625 
L 458.942355 215.319625 
L 459.009409 215.39363 
L 459.121166 97.859021 
L 499.241949 97.859021 
L 499.264301 215.344881 
L 499.353706 215.31845 
L 499.577221 215.336658 
L 499.89014 215.341944 
L 507.288457 215.30083 
L 507.400214 97.859021 
L 547.520998 97.859021 
L 547.610403 215.337832 
L 547.632755 215.29848 
L 548.012729 215.321974 
L 548.169188 215.299655 
L 548.325648 215.332546 
L 548.459757 215.314339 
L 548.616217 215.302592 
L 548.750325 215.297306 
L 548.906785 215.311402 
L 549.219705 215.313164 
L 549.420867 215.330197 
L 549.532625 215.316688 
L 549.756139 215.299655 
L 550.002004 215.316688 
L 550.180815 215.331372 
L 550.292572 215.29848 
L 550.314924 215.320799 
L 550.672546 215.324911 
L 551.097223 215.339594 
L 551.231332 215.306116 
L 551.588954 215.334308 
L 551.700711 215.30083 
L 551.723063 215.324911 
L 552.103037 215.294369 
L 552.773579 215.313164 
L 553.064147 215.29202 
L 553.175905 215.315513 
L 553.198256 215.294369 
L 553.42177 215.314339 
L 553.600581 215.297306 
L 554.181718 215.331372 
L 554.360529 215.29848 
L 554.539341 215.343706 
L 555.031072 215.290258 
L 555.32164 215.326086 
L 555.522803 215.299655 
L 555.567506 215.380709 
L 555.679263 97.859021 
L 595.800046 97.859021 
L 595.889451 215.346055 
L 595.911803 215.324911 
L 603.846554 215.274399 
L 603.958311 97.859021 
L 644.079094 97.859021 
L 644.190851 215.335483 
L 644.414365 215.330197 
L 645.174313 215.315513 
L 645.308421 215.324911 
L 646.046018 215.332546 
L 646.224829 215.34723 
L 646.358938 215.320799 
L 652.125602 215.287908 
L 652.237359 97.859021 
L 692.358142 97.859021 
L 692.469899 215.335483 
L 692.604007 215.306116 
L 692.738116 215.360739 
L 692.916927 215.304941 
L 693.878038 215.320799 
L 695.666151 215.32726 
L 695.844962 215.352516 
L 695.979071 215.311402 
L 696.202585 215.336658 
L 696.426099 215.316688 
L 696.537856 215.30083 
L 697.007236 215.304941 
L 697.700129 215.315513 
L 697.834238 215.336658 
L 697.990698 215.307878 
L 698.124806 215.321974 
L 698.34832 215.303766 
L 698.50478 215.340769 
L 698.616537 215.315513 
L 698.638889 215.332546 
L 698.8177 215.315513 
L 698.840051 215.39363 
L 698.951808 97.859021 
L 739.072591 97.859021 
L 739.184348 39.085256 
L 739.36316 39.1064 
L 739.564322 39.085256 
L 739.698431 39.088193 
L 740.748947 39.124021 
L 740.883056 39.090542 
L 741.128921 39.095828 
L 741.285381 39.1064 
L 741.710058 39.094653 
L 741.866518 39.099939 
L 742.157086 39.122258 
L 742.358249 39.113448 
L 742.604114 39.116972 
L 743.855793 39.105225 
L 745.554501 39.101114 
L 745.666258 39.124021 
L 745.688609 39.098765 
L 745.86742 39.129307 
L 746.02388 39.111686 
L 746.157989 39.105225 
L 746.381503 39.132831 
L 746.560314 39.114623 
L 746.828531 39.122258 
L 747.052045 39.108162 
L 747.230856 39.130481 
L 747.342613 39.12637 
L 748.057859 39.113448 
L 748.504887 39.118734 
L 750.203594 39.09759 
L 750.427108 39.104051 
L 750.561217 39.134593 
L 750.717677 39.108162 
L 751.030596 39.101114 
L 885.25082 39.208598 
L 885.362578 39.800054 
L 885.630794 42.782 
L 887.217745 52.53015 
L 887.262447 52.523102 
L 887.329502 52.824997 
L 887.642421 54.281611 
L 887.709476 54.480133 
L 887.888287 55.530304 
L 887.910638 55.510334 
L 887.93299 55.597261 
L 888.24591 56.797205 
L 888.424721 57.673523 
L 888.447072 57.507892 
L 888.491775 57.828582 
L 888.737641 58.908708 
L 888.759992 58.908708 
L 888.938803 59.610584 
L 889.274074 60.798194 
L 889.296426 60.801718 
L 889.51994 61.705053 
L 889.698751 62.443932 
L 889.721103 62.398706 
L 889.743454 62.285936 
L 889.788157 62.585482 
L 889.810508 62.560226 
L 890.011671 63.471197 
L 890.034022 63.322599 
L 890.078725 63.552838 
L 890.101077 63.5546 
L 890.14578 63.542265 
L 890.302239 64.224172 
L 890.615159 65.269057 
L 890.771619 65.79708 
L 890.816322 65.88988 
L 890.928079 66.3809 
L 890.972782 66.338611 
L 890.995133 66.336262 
L 891.151593 66.833742 
L 891.173944 66.702764 
L 891.218647 67.068092 
L 891.486864 67.863944 
L 891.509216 67.682454 
L 891.553918 68.136471 
L 891.598621 68.003144 
L 891.755081 68.745547 
L 891.777433 68.615744 
L 891.822135 68.859492 
L 891.844487 68.821315 
L 892.090352 69.540224 
L 892.112704 69.493824 
L 892.135055 69.543748 
L 892.291515 70.12933 
L 892.313866 70.04299 
L 892.358569 70.287913 
L 892.380921 70.285563 
L 892.515029 70.700816 
L 892.537381 70.549868 
L 892.559732 70.477038 
L 892.716192 71.10902 
L 894.973684 76.004533 
L 894.996036 75.982214 
L 895.018387 75.970467 
L 895.130144 76.354003 
L 895.152496 76.350479 
L 895.21955 76.701123 
L 895.264253 76.526095 
L 895.308956 76.707584 
L 895.599524 77.245004 
L 895.621875 77.153966 
L 895.666578 77.282594 
L 895.800687 77.721928 
L 895.823038 77.556296 
L 896.001849 77.924561 
L 896.068903 78.144228 
L 896.091255 78.106051 
L 896.247715 78.427328 
L 896.270066 78.288715 
L 896.314769 78.557131 
L 896.359472 78.669901 
L 896.381823 78.508381 
L 896.404175 78.488412 
L 896.538283 79.05931 
L 896.582986 78.945365 
L 896.605337 78.889568 
L 896.739446 79.270754 
L 896.761797 79.153285 
L 896.8065 79.318329 
L 896.828851 79.317154 
L 896.96296 79.732994 
L 896.985311 79.492183 
L 897.074717 79.714199 
L 897.231177 80.108894 
L 897.253528 80.127689 
L 897.27588 79.910372 
L 897.320583 80.238697 
L 897.342934 80.218727 
L 897.365285 80.16058 
L 897.387637 80.282161 
L 897.409988 80.257492 
L 897.521745 80.409614 
L 897.544097 80.315639 
L 897.655854 80.648076 
L 897.678205 80.846598 
L 897.700557 80.60285 
L 897.767611 80.805484 
L 898.527559 81.869752 
L 898.661667 82.124072 
L 898.70637 82.21511 
L 898.728721 81.943757 
L 898.751073 82.230968 
L 898.840478 82.07356 
L 898.996938 82.690859 
L 899.041641 82.5358 
L 899.108695 82.61098 
L 899.131047 82.576914 
L 899.153398 82.738434 
L 899.17575 82.686747 
L 899.354561 83.035043 
L 899.376912 82.895842 
L 899.421615 83.151337 
L 899.443967 83.02682 
L 899.578075 83.434437 
L 899.600426 83.225342 
L 899.622778 83.198912 
L 899.645129 83.442659 
L 899.734535 83.434437 
L 899.756886 83.249423 
L 899.779238 83.583035 
L 899.823941 83.588321 
L 899.913346 83.612402 
L 900.047455 83.813274 
L 900.069806 83.744554 
L 900.092158 83.821496 
L 900.159212 84.100485 
L 900.226266 84.010621 
L 900.248617 84.000049 
L 900.382726 84.203857 
L 900.427429 84.349519 
L 900.494483 84.296658 
L 900.516834 84.136313 
L 900.583889 84.425286 
L 900.60624 84.313691 
L 900.650943 84.583869 
L 900.673294 84.605013 
L 900.695646 84.425286 
L 900.740348 84.764184 
L 900.7627 84.694877 
L 900.785051 84.611474 
L 900.829754 84.819394 
L 900.874457 84.688416 
L 900.896808 84.681955 
L 900.91916 84.771819 
L 901.053268 84.976802 
L 901.165025 85.000883 
L 901.209728 84.965055 
L 901.299134 85.190008 
L 901.321485 85.094858 
L 901.388539 85.243456 
L 901.455594 85.198231 
L 901.500296 85.534192 
L 901.589702 85.343892 
L 901.567351 85.605848 
L 901.612053 85.420834 
L 901.768513 85.681615 
L 901.790865 85.648137 
L 902.03673 85.89717 
L 902.059082 85.886598 
L 902.081433 85.943571 
L 902.237893 86.277182 
L 902.260244 85.905393 
L 902.34965 86.199065 
L 902.372001 86.183207 
L 902.439056 86.070437 
L 902.483759 86.405811 
L 902.50611 86.297152 
L 902.550813 86.54971 
L 902.707273 86.491563 
L 902.774327 86.462783 
L 902.81903 86.674227 
L 902.886084 86.52093 
L 902.908435 86.619016 
L 903.042544 86.9168 
L 903.064895 86.903291 
L 903.087247 86.698308 
L 903.154301 87.043666 
L 903.176652 86.791108 
L 903.355464 87.273905 
L 903.467221 87.037205 
L 903.534275 87.357308 
L 903.601329 87.322067 
L 903.646032 87.194614 
L 903.668383 87.271556 
L 903.802492 87.5294 
L 903.891897 87.437187 
L 903.981303 87.635709 
L 904.026006 87.59577 
L 904.160114 87.851264 
L 904.204817 87.91646 
L 904.271871 87.695031 
L 904.40598 88.055073 
L 904.473034 87.918809 
L 904.517737 87.929381 
L 904.674197 88.308218 
L 904.696548 88.083265 
L 904.785954 88.256532 
L 904.964765 88.60189 
L 905.009468 88.52671 
L 905.054171 88.41394 
L 905.076522 88.614224 
L 905.098874 88.497343 
L 905.143576 88.43391 
L 905.232982 88.750488 
L 905.255333 88.41394 
L 905.344739 88.611288 
L 905.434145 88.910246 
L 905.389442 88.547855 
L 905.456496 88.695865 
L 905.478848 88.597779 
L 905.52355 88.76106 
L 905.612956 88.980727 
L 905.68001 88.924929 
L 905.747065 88.872069 
L 905.83647 89.106419 
L 905.791767 88.833891 
L 905.881173 89.052383 
L 905.903524 88.961932 
L 905.970579 89.01773 
L 906.104687 89.335483 
L 906.216444 89.138135 
L 906.328201 89.387169 
L 906.350553 89.352516 
L 906.372904 89.261478 
L 906.395255 89.494653 
L 906.46231 89.30083 
L 906.574067 89.650887 
L 906.61877 89.613297 
L 906.663472 89.559261 
L 906.708175 89.597439 
L 906.730527 89.793611 
L 906.752878 89.490542 
L 906.819932 89.646775 
L 906.864635 89.717844 
L 906.886987 89.551038 
L 906.976392 89.662634 
L 906.998744 89.639727 
L 907.021095 89.76072 
L 907.043446 89.711383 
L 907.065798 89.936336 
L 907.155203 89.851759 
L 907.177555 89.730178 
L 907.222258 89.979212 
L 907.244609 89.846472 
L 907.289312 90.119 
L 907.378718 90.021501 
L 907.401069 90.096681 
L 907.42342 89.995071 
L 907.468123 90.012103 
L 907.490475 89.912842 
L 907.512826 90.234707 
L 907.535177 89.953956 
L 907.624583 90.224135 
L 907.669286 90.207689 
L 907.713989 90.148367 
L 907.781043 90.232945 
L 907.825746 90.285806 
L 907.848097 90.111365 
L 907.870449 90.50606 
L 907.959854 90.28052 
L 907.982206 90.153653 
L 908.026908 90.366859 
L 908.04926 90.247628 
L 908.183368 90.53484 
L 908.20572 90.368034 
L 908.250423 90.571842 
L 908.295125 90.520156 
L 908.608045 90.770365 
L 908.339828 90.438515 
L 908.630397 90.654071 
L 908.675099 90.452612 
L 908.697451 90.683438 
L 908.764505 90.822051 
L 908.786856 90.602384 
L 908.809208 90.703408 
L 908.920965 90.758618 
L 908.965668 90.900168 
L 909.032722 90.819702 
L 909.189182 90.981221 
L 909.211533 90.897818 
L 909.63621 91.246114 
L 909.658561 91.018224 
L 909.725616 91.259035 
L 909.747967 91.361233 
L 909.79267 91.243177 
L 909.815021 91.099277 
L 909.859724 91.316007 
L 909.94913 91.576788 
L 909.971481 91.345375 
L 910.038535 91.521578 
L 910.060887 91.429952 
L 910.083238 91.256686 
L 910.150293 91.32658 
L 910.172644 91.554469 
L 910.26205 91.498671 
L 910.351455 91.641983 
L 910.373807 91.357122 
L 910.463212 91.595583 
L 910.530267 91.428778 
L 910.552618 91.634935 
L 910.574969 91.603219 
L 910.619672 91.407633 
L 910.642024 91.74888 
L 910.731429 91.623188 
L 910.820835 91.660191 
L 910.843186 91.81525 
L 910.887889 91.617902 
L 910.932592 91.775311 
L 910.954943 91.559755 
L 910.977295 91.866936 
L 911.044349 91.733022 
L 911.178457 91.935656 
L 911.200809 91.807027 
L 911.290215 91.897478 
L 911.357269 92.077205 
L 911.37962 91.973833 
L 911.401972 91.864 
L 911.491377 91.971484 
L 911.513729 91.93683 
L 911.53608 92.077205 
L 911.558431 92.130066 
L 911.580783 91.868111 
L 911.625486 92.160608 
L 911.670189 91.947402 
L 911.759594 92.185864 
L 911.781946 92.019058 
L 911.804297 91.992628 
L 911.893703 92.204659 
L 911.916054 92.082492 
L 911.938405 92.065459 
L 911.960757 92.154148 
L 912.00546 92.139464 
L 912.094865 92.356781 
L 912.273677 92.16472 
L 912.430136 92.545906 
L 912.452488 92.283951 
L 912.541894 92.413754 
L 912.608948 92.507729 
L 912.631299 92.393784 
L 912.676002 92.525936 
L 912.698353 92.426675 
L 912.720705 92.308032 
L 912.743056 92.504792 
L 912.765408 92.373814 
L 912.854813 92.716823 
L 912.877165 92.458392 
L 913.055976 92.671598 
L 913.078327 92.480124 
L 913.145382 92.696854 
L 913.167733 92.763223 
L 913.212436 92.709188 
L 913.257139 92.514189 
L 913.324193 92.63342 
L 913.458301 92.824307 
L 913.480653 92.556478 
L 913.503004 92.879518 
L 913.547707 92.769684 
L 913.570058 92.921806 
L 913.637113 92.649279 
L 913.659464 92.897138 
L 913.704167 92.977604 
L 913.793573 92.879518 
L 913.815924 92.994637 
L 913.882978 92.853087 
L 913.90533 92.973493 
L 914.017087 92.829593 
L 913.994735 93.034576 
L 914.039438 92.928854 
L 914.262952 93.147346 
L 914.397061 92.977604 
L 914.464115 93.275387 
L 914.531169 93.080977 
L 914.553521 93.019893 
L 914.575872 93.165554 
L 914.598223 93.063944 
L 914.665278 92.993462 
L 914.732332 93.341757 
L 914.777035 93.293008 
L 914.799386 93.107407 
L 914.86644 93.264815 
L 914.911143 93.222527 
L 914.978197 93.371125 
L 915.000549 93.139124 
L 915.089954 93.206668 
L 915.201711 93.361727 
L 915.224063 93.169666 
L 915.268766 93.439844 
L 915.291117 93.259529 
L 915.402874 93.42751 
L 915.447577 93.496816 
L 915.559334 93.299469 
L 915.581685 93.616047 
L 915.671091 93.467449 
L 915.760497 93.550852 
L 915.782848 93.409302 
L 915.827551 93.639541 
L 915.872254 93.549677 
L 915.894605 93.585505 
L 915.916957 93.556138 
L 915.961659 93.385221 
L 916.028714 93.456877 
L 916.274579 93.667146 
L 916.363985 93.580219 
L 916.386336 93.602538 
L 916.45339 93.866256 
L 916.520445 93.729404 
L 916.565148 93.488593 
L 916.60985 93.749374 
L 916.632202 93.812807 
L 916.676905 93.711197 
L 916.743959 93.617222 
L 916.721607 93.855683 
L 916.76631 93.638366 
L 916.92277 93.923228 
L 916.967473 93.700625 
L 917.034527 93.775805 
L 917.123933 93.977264 
L 917.168636 93.876828 
L 917.23569 93.764058 
L 917.280393 93.845111 
L 917.325096 93.812807 
L 917.414501 93.934975 
L 917.436853 93.805172 
L 917.459204 94.007806 
L 917.526258 93.888575 
L 917.727421 94.038348 
L 917.749772 93.8874 
L 917.794475 94.185184 
L 917.839178 93.963755 
L 917.861529 93.913831 
L 917.883881 94.2169 
L 917.973286 94.061841 
L 918.196801 94.101781 
L 918.263855 94.175786 
L 918.308558 94.091208 
L 918.35326 94.21925 
L 918.420315 94.173437 
L 918.465018 94.212789 
L 918.554423 94.080636 
L 918.66618 94.288556 
L 918.688532 94.158753 
L 918.755586 94.324384 
L 918.777937 94.208677 
L 918.934397 94.337306 
L 918.956749 94.242156 
L 919.001451 94.430106 
L 919.023803 94.398389 
L 919.269668 94.240981 
L 919.336723 94.42482 
L 919.403777 94.393103 
L 919.44848 94.231584 
L 919.515534 94.317336 
L 919.582588 94.302652 
L 919.649642 94.565195 
L 919.694345 94.317336 
L 919.806102 94.390167 
L 919.917859 94.529367 
L 919.940211 94.524081 
L 919.962562 94.445964 
L 919.984913 94.585165 
L 920.051968 94.487078 
L 920.163725 94.736112 
L 920.141373 94.413073 
L 920.186076 94.655059 
L 920.275482 94.525256 
L 920.342536 94.814229 
L 920.387239 94.550512 
L 920.498996 94.635089 
L 920.56605 94.552861 
L 920.610753 94.669742 
L 920.633104 94.456537 
L 920.677807 94.702634 
L 920.72251 94.591626 
L 920.744861 94.598086 
L 920.767213 94.783687 
L 920.856619 94.635089 
L 920.87897 94.564021 
L 920.946024 94.653884 
L 921.102484 94.918776 
L 920.990727 94.558147 
L 921.147187 94.759606 
L 921.236592 94.736112 
L 921.281295 94.657996 
L 921.34835 94.888234 
L 921.482458 94.668568 
L 921.616566 94.936984 
L 921.661269 94.692062 
L 921.728324 94.921126 
L 921.862432 94.763718 
L 921.907135 95.060326 
L 921.99654 94.91349 
L 922.085946 94.984559 
L 922.108298 94.755495 
L 922.197703 94.904093 
L 922.287109 94.733176 
L 922.331812 94.9223 
L 922.398866 94.970463 
L 922.421217 94.722603 
L 922.443569 95.039182 
L 922.488272 94.930523 
L 922.510623 95.021562 
L 922.555326 94.89587 
L 922.600029 94.999243 
L 922.734137 94.908204 
L 922.801191 94.862979 
L 922.77884 94.978098 
L 922.845894 94.909379 
L 922.957651 95.092043 
L 922.980003 95.015101 
L 923.002354 95.025673 
L 923.024705 94.862979 
L 923.047057 95.129046 
L 923.09176 95.012751 
L 923.181165 94.967526 
L 923.225868 95.279993 
L 923.337625 95.013926 
L 923.359977 95.053866 
L 923.404679 95.288216 
L 923.449382 95.118473 
L 923.494085 95.181907 
L 923.516436 94.970463 
L 923.538788 95.220671 
L 923.628193 95.160762 
L 923.717599 95.081471 
L 923.739951 95.312884 
L 923.807005 95.097329 
L 923.829356 95.032134 
L 923.851708 95.23653 
L 923.963465 95.321107 
L 924.008167 95.107901 
L 924.097573 95.186018 
L 924.142276 95.119648 
L 924.298736 95.355173 
L 924.343439 95.124934 
L 924.432844 95.21656 
L 924.499899 95.352824 
L 924.52225 95.252388 
L 924.544601 95.099678 
L 924.566953 95.360459 
L 924.611656 95.122585 
L 924.745764 95.446799 
L 924.768115 95.301137 
L 924.857521 95.432115 
L 924.99163 95.29174 
L 925.013981 95.436227 
L 925.103387 95.33814 
L 925.125738 95.336965 
L 925.148089 95.489088 
L 925.237495 95.416257 
L 925.259847 95.449735 
L 925.282198 95.421543 
L 925.326901 95.285279 
L 925.349252 95.463832 
L 925.393955 95.417432 
L 925.416306 95.518455 
L 925.438658 95.286454 
L 925.483361 95.436227 
L 925.550415 95.244165 
L 925.617469 95.380429 
L 925.662172 95.516693 
L 925.706875 95.369857 
L 925.729226 95.322282 
L 925.751578 95.580713 
L 925.840983 95.440338 
L 925.863335 95.250626 
L 925.930389 95.446799 
L 925.997443 95.348712 
L 926.064497 95.601858 
L 926.131552 95.360459 
L 926.176254 95.502596 
L 926.220957 95.465594 
L 926.310363 95.594809 
L 926.355066 95.27177 
L 926.42212 95.531376 
L 926.489174 95.462657 
L 926.556228 95.628288 
L 926.600931 95.351649 
L 926.712688 95.472055 
L 926.824445 95.618891 
L 926.869148 95.535488 
L 926.936202 95.613604 
L 926.958554 95.49731 
L 926.980905 95.702293 
L 927.070311 95.587174 
L 927.137365 95.516693 
L 927.182068 95.738121 
L 927.249122 95.543711 
L 927.293825 95.587174 
L 927.450285 95.768663 
L 927.584393 95.515518 
L 927.606745 95.816238 
L 927.69615 95.56603 
L 927.785556 95.773949 
L 927.807907 95.740471 
L 927.830259 95.560744 
L 927.897313 95.723438 
L 927.919664 95.745757 
L 927.942016 95.664116 
L 927.986719 95.47088 
L 928.031421 95.603032 
L 928.053773 95.821524 
L 928.120827 95.604207 
L 928.143179 95.536662 
L 928.16553 95.703468 
L 928.187881 95.56603 
L 928.232584 95.527852 
L 928.32199 95.792157 
L 928.366693 95.669402 
L 928.411395 95.784522 
L 928.433747 95.907277 
L 928.456098 95.648258 
L 928.47845 95.815064 
L 928.500801 95.596571 
L 928.567855 95.992441 
L 928.590207 95.771013 
L 928.612558 95.883783 
L 928.657261 95.657068 
L 928.679612 95.744582 
L 928.813721 95.728724 
L 928.858424 95.870274 
L 928.925478 95.789808 
L 928.947829 95.732835 
L 928.970181 95.984219 
L 929.059586 95.84678 
L 929.238398 95.910213 
L 929.260749 95.604207 
L 929.350155 95.732835 
L 929.528966 95.974821 
L 929.663075 95.633574 
L 929.774832 95.924897 
L 929.90894 95.692896 
L 930.020697 96.0083 
L 930.132454 95.80038 
L 930.244211 96.090528 
L 930.266563 95.810952 
L 930.355968 95.912563 
L 930.400671 95.775124 
L 930.467725 96.042366 
L 930.490077 95.765727 
L 930.512428 96.049414 
L 930.579482 95.898466 
L 930.758294 96.151024 
L 930.825348 95.796269 
L 930.870051 95.947216 
L 930.937105 96.190964 
L 930.959456 96.082305 
L 931.048862 95.80038 
L 931.093565 95.932532 
L 931.160619 96.040016 
L 931.18297 95.806841 
L 931.205322 96.058224 
L 931.294728 96.029444 
L 931.361782 96.092877 
L 931.384133 95.877322 
L 931.49589 96.193313 
L 931.540593 95.943105 
L 931.585296 96.250286 
L 931.607647 96.104624 
L 931.697053 96.040016 
L 931.719404 96.127531 
L 931.741756 96.184503 
L 931.764107 95.916674 
L 931.80881 96.300797 
L 931.853513 96.153961 
L 932.099378 95.958963 
L 932.12173 96.001252 
L 932.188784 96.107561 
L 932.166433 95.9619 
L 932.211135 96.033556 
L 932.233487 95.903752 
L 932.255838 96.146913 
L 932.322892 95.995966 
L 932.367595 96.275541 
L 932.434649 96.179217 
L 932.524055 96.166883 
L 932.591109 96.260858 
L 932.613461 95.973646 
L 932.702866 96.287288 
L 932.725218 96.168057 
L 932.792272 96.026507 
L 932.769921 96.205647 
L 932.814623 96.157485 
L 932.948732 96.307258 
L 932.859326 95.981869 
L 932.971083 96.26262 
L 932.993435 96.182741 
L 933.060489 96.301972 
L 933.08284 96.274367 
L 933.105192 96.308433 
L 933.127543 96.279653 
L 933.172246 96.049414 
L 933.261652 96.068796 
L 933.373409 96.22268 
L 933.39576 96.102275 
L 933.462814 96.212108 
L 933.574571 96.365405 
L 933.596923 96.338974 
L 933.641626 96.12988 
L 933.70868 96.326053 
L 933.798086 96.369516 
L 933.842788 96.193313 
L 933.887491 96.324291 
L 933.954545 96.152199 
" clip-path="url(#pc36408c3e2)" style="fill: none; stroke: #800080; stroke-width: 1.5; stroke-linecap: square"/>
   </g>
   <g id="patch_3">
    <path d="M 135 224.28 
L 135 30.24 
" style="fill: none; stroke: #000000; stroke-width: 0.8; stroke-linejoin: miter; stroke-linecap: square"/>
   </g>
   <g id="patch_4">
    <path d="M 972 224.28 
L 972 30.24 
" style="fill: none; stroke: #000000; stroke-width: 0.8; stroke-linejoin: miter; stroke-linecap: square"/>
   </g>
   <g id="patch_5">
    <path d="M 135 224.28 
L 972 224.28 
" style="fill: none; stroke: #000000; stroke-width: 0.8; stroke-linejoin: miter; stroke-linecap: square"/>
   </g>
   <g id="patch_6">
    <path d="M 135 30.24 
L 972 30.24 
" style="fill: none; stroke: #000000; stroke-width: 0.8; stroke-linejoin: miter; stroke-linecap: square"/>
   </g>
   <g id="text_18">
    <!-- 20°C profile -->
    <g transform="translate(517.81875 24.24) scale(0.12 -0.12)">
     <defs>
      <path id="DejaVuSans-b0" d="M 1600 4347 
Q 1350 4347 1178 4173 
Q 1006 4000 1006 3750 
Q 1006 3503 1178 3333 
Q 1350 3163 1600 3163 
Q 1850 3163 2022 3333 
Q 2194 3503 2194 3750 
Q 2194 3997 2020 4172 
Q 1847 4347 1600 4347 
z
M 1600 4750 
Q 1800 4750 1984 4673 
Q 2169 4597 2303 4453 
Q 2447 4313 2519 4134 
Q 2591 3956 2591 3750 
Q 2591 3338 2302 3052 
Q 2013 2766 1594 2766 
Q 1172 2766 890 3047 
Q 609 3328 609 3750 
Q 609 4169 896 4459 
Q 1184 4750 1600 4750 
z
" transform="scale(0.015625)"/>
      <path id="DejaVuSans-43" d="M 4122 4306 
L 4122 3641 
Q 3803 3938 3442 4084 
Q 3081 4231 2675 4231 
Q 1875 4231 1450 3742 
Q 1025 3253 1025 2328 
Q 1025 1406 1450 917 
Q 1875 428 2675 428 
Q 3081 428 3442 575 
Q 3803 722 4122 1019 
L 4122 359 
Q 3791 134 3420 21 
Q 3050 -91 2638 -91 
Q 1578 -91 968 557 
Q 359 1206 359 2328 
Q 359 3453 968 4101 
Q 1578 4750 2638 4750 
Q 3056 4750 3426 4639 
Q 3797 4528 4122 4306 
z
" transform="scale(0.015625)"/>
      <path id="DejaVuSans-70" d="M 1159 525 
L 1159 -1331 
L 581 -1331 
L 581 3500 
L 1159 3500 
L 1159 2969 
Q 1341 3281 1617 3432 
Q 1894 3584 2278 3584 
Q 2916 3584 3314 3078 
Q 3713 2572 3713 1747 
Q 3713 922 3314 415 
Q 2916 -91 2278 -91 
Q 1894 -91 1617 61 
Q 1341 213 1159 525 
z
M 3116 1747 
Q 3116 2381 2855 2742 
Q 2594 3103 2138 3103 
Q 1681 3103 1420 2742 
Q 1159 2381 1159 1747 
Q 1159 1113 1420 752 
Q 1681 391 2138 391 
Q 2594 391 2855 752 
Q 3116 1113 3116 1747 
z
" transform="scale(0.015625)"/>
      <path id="DejaVuSans-72" d="M 2631 2963 
Q 2534 3019 2420 3045 
Q 2306 3072 2169 3072 
Q 1681 3072 1420 2755 
Q 1159 2438 1159 1844 
L 1159 0 
L 581 0 
L 581 3500 
L 1159 3500 
L 1159 2956 
Q 1341 3275 1631 3429 
Q 1922 3584 2338 3584 
Q 2397 3584 2469 3576 
Q 2541 3569 2628 3553 
L 2631 2963 
z
" transform="scale(0.015625)"/>
      <path id="DejaVuSans-6f" d="M 1959 3097 
Q 1497 3097 1228 2736 
Q 959 2375 959 1747 
Q 959 1119 1226 758 
Q 1494 397 1959 397 
Q 2419 397 2687 759 
Q 2956 1122 2956 1747 
Q 2956 2369 2687 2733 
Q 2419 3097 1959 3097 
z
M 1959 3584 
Q 2709 3584 3137 3096 
Q 3566 2609 3566 1747 
Q 3566 888 3137 398 
Q 2709 -91 1959 -91 
Q 1206 -91 779 398 
Q 353 888 353 1747 
Q 353 2609 779 3096 
Q 1206 3584 1959 3584 
z
" transform="scale(0.015625)"/>
      <path id="DejaVuSans-66" d="M 2375 4863 
L 2375 4384 
L 1825 4384 
Q 1516 4384 1395 4259 
Q 1275 4134 1275 3809 
L 1275 3500 
L 2222 3500 
L 2222 3053 
L 1275 3053 
L 1275 0 
L 697 0 
L 697 3053 
L 147 3053 
L 147 3500 
L 697 3500 
L 697 3744 
Q 697 4328 969 4595 
Q 1241 4863 1831 4863 
L 2375 4863 
z
" transform="scale(0.015625)"/>
      <path id="DejaVuSans-6c" d="M 603 4863 
L 1178 4863 
L 1178 0 
L 603 0 
L 603 4863 
z
" transform="scale(0.015625)"/>
     </defs>
     <use xlink:href="#DejaVuSans-32"/>
     <use xlink:href="#DejaVuSans-30" x="63.623047"/>
     <use xlink:href="#DejaVuSans-b0" x="127.246094"/>
     <use xlink:href="#DejaVuSans-43" x="177.246094"/>
     <use xlink:href="#DejaVuSans-20" x="247.070312"/>
     <use xlink:href="#DejaVuSans-70" x="278.857422"/>
     <use xlink:href="#DejaVuSans-72" x="342.333984"/>
     <use xlink:href="#DejaVuSans-6f" x="381.197266"/>
     <use xlink:href="#DejaVuSans-66" x="442.378906"/>
     <use xlink:href="#DejaVuSans-69" x="477.583984"/>
     <use xlink:href="#DejaVuSans-6c" x="505.367188"/>
     <use xlink:href="#DejaVuSans-65" x="533.150391"/>
    </g>
   </g>
   <g id="legend_1">
    <g id="patch_7">
     <path d="M 895.446875 52.918125 
L 965 52.918125 
Q 967 52.918125 967 50.918125 
L 967 37.24 
Q 967 35.24 965 35.24 
L 895.446875 35.24 
Q 893.446875 35.24 893.446875 37.24 
L 893.446875 50.918125 
Q 893.446875 52.918125 895.446875 52.918125 
z
" style="fill: #ffffff; opacity: 0.8; stroke: #cccccc; stroke-linejoin: miter"/>
    </g>
    <g id="line2d_142">
     <path d="M 897.446875 43.338437 
L 907.446875 43.338437 
L 917.446875 43.338437 
" style="fill: none; stroke: #800080; stroke-width: 1.5; stroke-linecap: square"/>
    </g>
    <g id="text_19">
     <!-- Current -->
     <g transform="translate(925.446875 46.838437) scale(0.1 -0.1)">
      <defs>
       <path id="DejaVuSans-75" d="M 544 1381 
L 544 3500 
L 1119 3500 
L 1119 1403 
Q 1119 906 1312 657 
Q 1506 409 1894 409 
Q 2359 409 2629 706 
Q 2900 1003 2900 1516 
L 2900 3500 
L 3475 3500 
L 3475 0 
L 2900 0 
L 2900 538 
Q 2691 219 2414 64 
Q 2138 -91 1772 -91 
Q 1169 -91 856 284 
Q 544 659 544 1381 
z
M 1991 3584 
L 1991 3584 
z
" transform="scale(0.015625)"/>
       <path id="DejaVuSans-6e" d="M 3513 2113 
L 3513 0 
L 2938 0 
L 2938 2094 
Q 2938 2591 2744 2837 
Q 2550 3084 2163 3084 
Q 1697 3084 1428 2787 
Q 1159 2491 1159 1978 
L 1159 0 
L 581 0 
L 581 3500 
L 1159 3500 
L 1159 2956 
Q 1366 3272 1645 3428 
Q 1925 3584 2291 3584 
Q 2894 3584 3203 3211 
Q 3513 2838 3513 2113 
z
" transform="scale(0.015625)"/>
       <path id="DejaVuSans-74" d="M 1172 4494 
L 1172 3500 
L 2356 3500 
L 2356 3053 
L 1172 3053 
L 1172 1153 
Q 1172 725 1289 603 
Q 1406 481 1766 481 
L 2356 481 
L 2356 0 
L 1766 0 
Q 1100 0 847 248 
Q 594 497 594 1153 
L 594 3053 
L 172 3053 
L 172 3500 
L 594 3500 
L 594 4494 
L 1172 4494 
z
" transform="scale(0.015625)"/>
      </defs>
      <use xlink:href="#DejaVuSans-43"/>
      <use xlink:href="#DejaVuSans-75" x="69.824219"/>
      <use xlink:href="#DejaVuSans-72" x="133.203125"/>
      <use xlink:href="#DejaVuSans-72" x="172.566406"/>
      <use xlink:href="#DejaVuSans-65" x="211.429688"/>
      <use xlink:href="#DejaVuSans-6e" x="272.953125"/>
      <use xlink:href="#DejaVuSans-74" x="336.332031"/>
     </g>
    </g>
   </g>
  </g>
 </g>
 <defs>
  <clipPath id="pc36408c3e2">
   <rect x="135" y="30.24" width="837" height="194.04"/>
  </clipPath>
 </defs>
</svg>
